# xmcd
#
# Track frame offsets: 
#        150
#        20627
#        41961
#        64053
#        82712
#        104262
#        125944
#        146149
#        165781
#        192436
#        211980
#        239553
#        261530
#        280452
#
# Disc length: 3992 seconds
#
# Revision: 5
# Processed by: cddbd v1.5.2PL0 Copyright (c) Steve Scherf et al.
# Submitted via: ExactAudioCopyFreeDBPlugin 1.0
#
DISCID=d80f960e
DTITLE=คาราบาว - รวมฮิตคาราบาวควายทอง 1
DYEAR=2000
DGENRE=Thai Country
TTITLE0=หลวงพ่อคูณ
TTITLE1=วณิพก
TTITLE2=คนจนผู้ยิ่งใหญ่
TTITLE3=เมดอินไทยแลนด์
TTITLE4=โนพลอมแพลม
TTITLE5=เจ้าตาก
TTITLE6=บัวลอย
TTITLE7=ทะเลใจ
TTITLE8=แร้งคอย
TTITLE9=กัญชา
TTITLE10=ลุงขี้เมา
TTITLE11=แม่สาย
TTITLE12=บาปบริสุทธิ์
TTITLE13=บ้า
EXTD=YEAR: 2000
EXTT0=
EXTT1=
EXTT2=
EXTT3=
EXTT4=
EXTT5=
EXTT6=
EXTT7=
EXTT8=
EXTT9=
EXTT10=
EXTT11=
EXTT12=
EXTT13=
PLAYORDER=
